<svg width="1162" height="619" viewBox="0 0 1162 619" fill="none" xmlns="http://www.w3.org/2000/svg">
<path d="M758.141 359.2C759.722 359.2 761.029 360.022 761.092 361.033C761.155 362.045 759.912 362.867 758.33 362.867H752.216C750.635 362.867 749.307 362.045 749.265 361.033C749.223 360.022 750.466 359.2 752.047 359.2H758.141Z" fill="white"/>
<path d="M782.471 359.2C784.052 359.2 785.38 360.022 785.444 361.033C785.507 362.045 784.263 362.867 782.682 362.867H770.517C768.915 362.867 767.607 362.045 767.543 361.033C767.48 360.022 768.725 359.2 770.306 359.2H782.471Z" fill="white"/>
<path d="M806.801 359.2C808.382 359.2 809.731 360.022 809.794 361.033C809.858 362.045 808.635 362.867 807.054 362.867H794.868C793.286 362.867 791.958 362.045 791.895 361.033C791.832 360.022 793.055 359.2 794.636 359.2H806.801Z" fill="white"/>
<path d="M831.152 359.2C832.733 359.2 834.061 360.022 834.146 361.033C834.23 362.045 833.007 362.867 831.426 362.867H819.24C817.658 362.867 816.309 362.045 816.245 361.033C816.183 360.022 817.406 359.2 818.987 359.2H831.152Z" fill="white"/>
<path d="M855.503 359.2C857.084 359.2 858.433 360.022 858.518 361.033C858.602 362.045 857.379 362.867 855.798 362.867H843.612C842.031 362.867 840.703 362.045 840.619 361.033C840.534 360.022 841.757 359.2 843.338 359.2H855.503Z" fill="white"/>
<path d="M879.832 359.2C881.413 359.2 882.763 360.022 882.848 361.033C882.932 362.045 881.73 362.867 880.149 362.867H867.963C866.382 362.867 865.012 362.045 864.949 361.033C864.886 360.022 866.087 359.2 867.668 359.2H879.832Z" fill="white"/>
<path d="M898.091 359.2C899.672 359.2 901.043 360.022 901.127 361.033C901.212 362.045 900.009 362.867 898.428 362.867H892.335C890.754 362.867 889.384 362.045 889.299 361.033C889.215 360.022 890.417 359.2 891.997 359.2H898.091Z" fill="white"/>
<path fill-rule="evenodd" clip-rule="evenodd" d="M621.88 374.798C629.112 370.118 640.939 370.118 648.297 374.798C655.697 379.498 655.845 387.128 648.614 391.871C641.361 396.614 629.449 396.614 622.049 391.871C614.67 387.15 614.607 379.498 621.88 374.798ZM644.27 377.411C639.168 374.165 630.967 374.165 625.95 377.411C620.932 380.657 620.973 385.948 626.076 389.236C631.199 392.503 639.421 392.503 644.46 389.236C649.478 385.969 649.372 380.678 644.27 377.411Z" fill="white"/>
<path fill-rule="evenodd" clip-rule="evenodd" d="M588.316 353.382C595.547 348.766 607.291 348.766 614.585 353.382C621.88 358.019 621.964 365.565 614.711 370.224C607.459 374.903 595.611 374.903 588.316 370.224C581.042 365.544 581.063 358.019 588.316 353.382ZM610.558 355.954C605.519 352.75 597.381 352.75 592.364 355.954C587.346 359.158 587.346 364.385 592.364 367.61C597.424 370.856 605.604 370.856 610.621 367.61C615.639 364.385 615.597 359.158 610.537 355.954H610.558Z" fill="white"/>
<path fill-rule="evenodd" clip-rule="evenodd" d="M621.437 332.24C628.584 327.666 640.244 327.666 647.538 332.24C654.833 336.814 654.98 344.255 647.833 348.871C640.665 353.487 628.901 353.487 621.606 348.871C614.332 344.255 614.269 336.814 621.437 332.24ZM643.575 334.791C638.536 331.629 630.44 331.629 625.506 334.791C620.552 337.953 620.594 343.117 625.633 346.3C630.693 349.503 638.81 349.503 643.764 346.3C648.719 343.117 648.613 337.953 643.575 334.791Z" fill="white"/>
<path fill-rule="evenodd" clip-rule="evenodd" d="M79.6205 121.583C92.9661 114.353 112.7 114.353 123.769 121.583C134.901 128.834 133.171 140.68 119.784 148.036C106.396 155.392 86.367 155.414 75.2562 148.036C64.2088 140.68 66.1905 128.855 79.6205 121.583ZM119.678 123.817C110.486 117.81 94.1046 117.81 83.015 123.817C71.8831 129.846 70.2387 139.668 79.431 145.76C88.6443 151.872 105.215 151.872 116.347 145.76C127.458 139.668 128.913 129.846 119.678 123.817Z" fill="white"/>
<path fill-rule="evenodd" clip-rule="evenodd" d="M1041.81 20.9131L1041.84 20.9336C1053.87 27.2993 1055.48 37.6492 1045.36 44.0781L902.497 134.742L1073.73 231.043C1086.68 238.336 1088.54 250.204 1077.76 257.581L921.704 364.385L921.692 364.377L834.825 423.836L834.841 423.847L736.657 491.045L736.642 491.035L561.119 611.171C548.005 620.15 526.964 620.297 513.85 611.592L513.238 611.171L341.152 491.034L341.136 491.045L155.962 361.792L155.983 361.779L6.6937 257.581C-3.86897 250.204 -1.67607 238.336 11.4798 231.043L88.2748 188.539L18.2054 141.502C12.6395 137.771 13.7569 131.722 20.6722 127.991L105.012 82.7344L45.2123 44.0781C35.2612 37.6492 37.18 27.2781 49.3871 20.9336L89.6048 0H96.8304L52.6546 23.0205C42.6614 28.2269 41.123 36.7002 49.2611 41.9697L109.057 80.5635L109.095 80.5439V80.5645L189.557 132.496L370.281 32.4688L316.344 0H323.574L374.065 30.3447L428.887 0H436.151L377.582 32.46L377.589 32.4639L193.044 134.758L362.704 244.26L362.689 244.269L540.75 359.192L635.015 299.464L635.022 299.468L725.925 241.856H725.943L894.95 134.757L655.658 0H662.895L716.864 30.3457L768.22 0H775.481L720.613 32.4639L898.492 132.502L1041.35 41.9697C1049.64 36.7212 1048.33 28.2269 1038.51 23.0205L994.992 0H1002.24L1041.81 20.9131ZM551.588 482.677C544.694 487.229 533.647 487.293 526.732 482.888L526.415 482.677L442.782 426.537L345.564 488.241L517.665 608.178L518.171 608.515H518.151C528.882 615.618 546.065 615.492 556.796 608.178L732.314 488.241L636.845 426.528L551.588 482.677ZM164.087 361.797L341.536 485.459L536.682 361.791L358.614 246.684L164.087 361.797ZM640.931 423.837L736.409 485.455L826.577 423.847L731.197 364.385L640.931 423.837ZM447.019 423.849L530.653 479.895L531.096 480.169C535.713 482.951 542.902 482.866 547.435 479.895L632.674 423.847L540.699 364.391L447.019 423.849ZM735.144 361.788L830.519 421.149L917.4 361.793L822.17 304.48L735.144 361.788ZM544.799 361.792L636.774 421.142L727.039 361.793L635.098 304.48L544.799 361.792ZM14.9584 233.446C4.18484 239.411 2.41385 249.129 11.058 255.157L160.36 359.193L354.88 244.261L188.946 136.997L14.9584 233.446ZM729.974 244.26L921.207 359.192L1073.48 255.157C1082.29 249.129 1080.8 239.411 1070.21 233.446L898.955 137.013V137.005L729.974 244.26ZM639.043 301.971L730.98 359.183L818.006 301.965L726.158 246.684L639.043 301.971ZM24.0033 130.268C19.3861 132.755 18.6481 136.78 22.3587 139.268L92.4388 186.23H92.4476L185.454 134.754L108.378 84.9277L24.0033 130.268Z" fill="white"/>
<path d="M544.442 227.418C545.959 227.418 547.182 228.176 547.161 229.104L547.12 232.35C547.12 233.277 545.854 234.036 544.336 234.036C542.818 234.036 541.595 233.277 541.617 232.35L541.659 229.104C541.659 228.176 542.924 227.418 544.442 227.418Z" fill="white"/>
<path d="M544.61 214.476C546.128 214.476 547.33 215.234 547.33 216.141L547.245 222.611C547.245 223.539 546.002 224.298 544.484 224.298C542.966 224.298 541.743 223.539 541.764 222.611L541.848 216.141C541.848 215.213 543.092 214.476 544.61 214.476Z" fill="white"/>
<path d="M544.758 201.639C546.255 201.639 547.477 202.376 547.456 203.304L547.372 209.712H547.414C547.414 210.639 546.17 211.377 544.653 211.377C543.135 211.377 541.933 210.639 541.933 209.712L542.017 203.304C542.017 202.376 543.261 201.639 544.758 201.639Z" fill="white"/>
<path d="M544.969 188.907C546.466 188.907 547.667 189.645 547.667 190.552L547.583 196.917C547.583 197.823 546.339 198.582 544.842 198.582C543.345 198.582 542.123 197.844 542.144 196.917L542.228 190.552C542.228 189.645 543.472 188.907 544.969 188.907Z" fill="white"/>
<path d="M545.117 176.281C546.592 176.281 547.814 177.019 547.793 177.926L547.709 184.229H547.751C547.751 185.135 546.508 185.872 545.011 185.872C543.514 185.872 542.312 185.135 542.312 184.229L542.397 177.926C542.397 177.019 543.641 176.281 545.117 176.281Z" fill="white"/>
<path d="M545.306 163.761C546.803 163.761 547.984 164.478 547.984 165.384L547.899 171.645C547.899 172.551 546.676 173.268 545.179 173.268C543.683 173.267 542.481 172.53 542.502 171.645L542.586 165.384C542.586 164.499 543.809 163.761 545.306 163.761Z" fill="white"/>
<path d="M545.453 151.346C546.929 151.346 548.131 152.063 548.11 152.948L548.026 159.145H548.068C548.068 160.03 546.845 160.768 545.348 160.768C543.851 160.768 542.67 160.051 542.67 159.145L542.755 152.948C542.755 152.063 543.978 151.346 545.453 151.346Z" fill="white"/>
<path d="M545.601 142.071C547.077 142.071 548.257 142.788 548.257 143.673L548.215 146.751C548.215 147.636 546.993 148.352 545.517 148.353C544.041 148.353 542.84 147.636 542.861 146.751L542.903 143.673C542.903 142.788 544.125 142.071 545.601 142.071Z" fill="white"/>
<path d="M388.658 133.261C390.133 133.261 391.272 133.957 391.23 134.842C391.187 135.727 389.944 136.443 388.468 136.443H383.324C381.848 136.443 380.688 135.706 380.751 134.842C380.815 133.978 382.059 133.261 383.535 133.261H388.658Z" fill="white"/>
<path d="M409.193 133.261C410.669 133.261 411.807 133.957 411.765 134.842C411.722 135.727 410.479 136.443 409.003 136.443H398.736C397.26 136.443 396.122 135.706 396.163 134.842C396.206 133.978 397.449 133.261 398.925 133.261H409.193Z" fill="white"/>
<path d="M429.686 133.261C431.162 133.261 432.321 133.957 432.279 134.842C432.236 135.727 431.014 136.443 429.538 136.443H419.271C417.816 136.443 416.636 135.706 416.699 134.842C416.762 133.978 417.984 133.261 419.46 133.261H429.686Z" fill="white"/>
<path d="M450.242 133.261C451.717 133.261 452.877 133.957 452.835 134.842C452.793 135.727 451.57 136.443 450.094 136.443H439.827C438.351 136.443 437.192 135.706 437.234 134.842C437.276 133.978 438.498 133.261 439.974 133.261H450.242Z" fill="white"/>
<path d="M470.713 133.261C472.189 133.261 473.349 133.957 473.327 134.842C473.306 135.727 472.083 136.443 470.608 136.443H460.34C458.865 136.443 457.706 135.706 457.747 134.842C457.79 133.978 459.012 133.261 460.488 133.261H470.713Z" fill="white"/>
<path d="M491.29 133.261C492.766 133.261 493.926 133.957 493.905 134.842C493.883 135.727 492.66 136.443 491.185 136.443H480.917C479.442 136.443 478.282 135.706 478.303 134.842C478.324 133.978 479.547 133.261 481.023 133.261H491.29Z" fill="white"/>
<path d="M511.762 133.261C513.238 133.261 514.419 133.957 514.398 134.842C514.376 135.727 513.175 136.443 511.7 136.443H501.432C499.956 136.443 498.776 135.706 498.818 134.842C498.86 133.978 500.062 133.261 501.537 133.261H511.762Z" fill="white"/>
<path d="M527.216 133.261C528.692 133.261 529.873 133.957 529.852 134.842C529.83 135.727 528.628 136.443 527.153 136.443H522.009C520.534 136.443 519.353 135.706 519.373 134.842C519.394 133.978 520.596 133.261 522.072 133.261H527.216Z" fill="white"/>
<path d="M564.07 133.261C565.546 133.261 566.726 133.957 566.726 134.842C566.726 135.727 565.525 136.443 564.049 136.443H558.905C557.429 136.443 556.249 135.706 556.248 134.842C556.248 133.978 557.45 133.261 558.925 133.261H564.07Z" fill="white"/>
<path d="M584.583 133.261C586.038 133.261 587.241 133.957 587.241 134.842C587.24 135.727 586.038 136.443 584.563 136.443H574.295C572.82 136.443 571.639 135.706 571.639 134.842C571.639 133.978 572.841 133.261 574.317 133.261H584.583Z" fill="white"/>
<path d="M605.119 133.261C606.594 133.261 607.796 133.957 607.796 134.842C607.796 135.727 606.616 136.443 605.14 136.443H594.872C593.397 136.443 592.195 135.706 592.195 134.842C592.195 133.978 593.375 133.261 594.851 133.261H605.119Z" fill="white"/>
<path d="M625.633 133.261C627.088 133.261 628.31 133.957 628.31 134.842C628.31 135.727 627.129 136.443 625.654 136.443H615.386C613.911 136.443 612.709 135.706 612.708 134.842C612.708 133.978 613.89 133.261 615.366 133.261H625.633Z" fill="white"/>
<path d="M646.168 133.261C647.644 133.261 648.845 133.957 648.867 134.842C648.887 135.727 647.706 136.443 646.231 136.443H635.963C634.488 136.443 633.286 135.706 633.265 134.842C633.244 133.978 634.425 133.261 635.901 133.261H646.168Z" fill="white"/>
<path d="M666.682 133.261C668.137 133.261 669.359 133.957 669.38 134.842C669.401 135.727 668.221 136.443 666.745 136.443H656.478C655.002 136.443 653.8 135.706 653.779 134.842C653.758 133.978 654.939 133.261 656.414 133.261H666.682Z" fill="white"/>
<path d="M687.196 133.261C688.672 133.261 689.873 133.957 689.915 134.842C689.957 135.727 688.777 136.443 687.301 136.443H677.034C675.558 136.443 674.356 135.706 674.314 134.842C674.272 133.978 675.452 133.261 676.928 133.261H687.196Z" fill="white"/>
<path d="M702.608 133.261C704.083 133.261 705.306 133.957 705.328 134.842C705.348 135.727 704.189 136.443 702.713 136.443H697.569C696.093 136.443 694.87 135.706 694.849 134.842C694.828 133.978 695.987 133.261 697.463 133.261H702.608Z" fill="white"/>
<path d="M545.896 121.246C547.372 121.246 548.553 121.942 548.532 122.827L548.49 125.862C548.489 126.726 547.267 127.443 545.812 127.443C544.357 127.443 543.155 126.726 543.176 125.862L543.219 122.827C543.219 121.963 544.42 121.246 545.896 121.246Z" fill="white"/>
<path d="M546.065 109.146C547.541 109.146 548.701 109.843 548.701 110.707L548.616 116.756C548.616 117.62 547.414 118.337 545.939 118.337C544.463 118.337 543.303 117.641 543.303 116.756L543.387 110.707C543.387 109.843 544.589 109.147 546.065 109.146Z" fill="white"/>
<path d="M546.234 97.1533C547.688 97.1534 548.869 97.8488 548.848 98.7129L548.763 104.699C548.763 105.563 547.562 106.259 546.107 106.259C544.652 106.259 543.471 105.563 543.493 104.699L543.578 98.7129C543.578 97.8488 544.779 97.1533 546.234 97.1533Z" fill="white"/>
<path d="M546.381 85.2656C547.836 85.2657 548.995 85.9607 548.995 86.8037L548.911 92.748C548.911 93.6122 547.709 94.3076 546.254 94.3076C544.8 94.3075 543.64 93.6122 543.64 92.748L543.725 86.8037C543.725 85.9607 544.927 85.2656 546.381 85.2656Z" fill="white"/>
<path d="M546.571 73.4404C548.004 73.4404 549.185 74.1356 549.164 74.9785L549.079 80.8809C549.079 81.7239 547.878 82.4198 546.445 82.4199C545.011 82.4199 543.83 81.724 543.851 80.8809L543.936 74.9785C543.936 74.1356 545.137 73.4405 546.571 73.4404Z" fill="white"/>
<path d="M546.718 61.7207C548.173 61.7207 549.312 62.3951 549.312 63.2383L549.227 69.0977C549.227 69.9408 548.047 70.6152 546.592 70.6152C545.137 70.6152 543.998 69.9408 543.998 69.0977L544.083 63.2383C544.083 62.3952 545.264 61.7208 546.718 61.7207Z" fill="white"/>
<path d="M546.887 50.1064C548.32 50.1064 549.48 50.7807 549.459 51.6025L549.375 57.4209C549.375 58.2639 548.194 58.9385 546.76 58.9385C545.327 58.9383 544.168 58.2638 544.189 57.4209L544.273 51.6025C544.273 50.7807 545.454 50.1065 546.887 50.1064Z" fill="white"/>
<path d="M546.993 41.4219C548.426 41.4219 549.565 42.0969 549.565 42.9189L549.523 45.8066C549.523 46.6285 548.342 47.3026 546.909 47.3027C545.475 47.3027 544.315 46.6286 544.336 45.8066L544.378 42.9189C544.378 42.0969 545.559 41.4219 546.993 41.4219Z" fill="white"/>
<path fill-rule="evenodd" clip-rule="evenodd" d="M534.427 36.6582C540.541 33.1595 550.344 33.1595 556.353 36.6582L635.647 82.7354L635.63 82.7451L713.549 128.033L713.529 128.012C719.917 131.722 720.191 137.772 714.077 141.523L633.476 190.889L633.462 190.88L554.182 239.433C547.773 243.353 537.505 243.416 531.075 239.622L530.78 239.433L449.146 188.549L449.151 188.545L373.689 141.502C367.68 137.771 368.123 131.722 374.617 127.991L457.621 80.5439V80.5645L534.427 36.6582ZM456.841 188.57L534.744 237.051L535.144 237.282C539.445 239.685 546.128 239.622 550.324 237.051L629.596 188.57L543.956 137.013L456.841 188.57ZM378.243 130.268C373.9 132.755 373.626 136.78 377.631 139.268L453.078 186.225L540.193 134.75L457.431 84.9277L378.243 130.268ZM547.761 134.75L633.402 186.223L710.198 139.268C714.266 136.78 714.098 132.755 709.839 130.268L631.947 84.9336L547.761 134.75ZM552.663 38.7871C548.658 36.4476 542.101 36.4475 538.032 38.7871L461.247 82.7441L544.016 132.491L628.204 82.7568L552.663 38.7871Z" fill="white"/>
<path d="M1081.6 170.78C1083.1 170.78 1084.42 171.518 1084.55 172.403L1085.1 175.881C1085.25 176.787 1084.15 177.525 1082.65 177.525C1081.16 177.525 1079.83 176.787 1079.7 175.881L1079.15 172.403C1079.01 171.497 1080.1 170.78 1081.6 170.78Z" fill="white"/>
<path d="M1079.41 156.995C1080.88 156.995 1082.21 157.712 1082.36 158.618L1083.45 165.511C1083.6 166.417 1082.5 167.134 1081.01 167.134C1079.51 167.134 1078.2 166.396 1078.06 165.511L1076.98 158.618C1076.83 157.733 1077.93 156.995 1079.41 156.995Z" fill="white"/>
<path d="M1077.28 143.336C1078.75 143.336 1080.06 144.052 1080.21 144.938L1081.28 151.768C1081.43 152.653 1080.33 153.369 1078.86 153.369C1077.38 153.369 1076.05 152.653 1075.93 151.768L1074.85 144.938C1074.7 144.052 1075.8 143.336 1077.28 143.336Z" fill="white"/>
<path d="M1075.15 129.782C1076.62 129.782 1077.93 130.499 1078.06 131.363L1079.13 138.13C1079.28 139.015 1078.18 139.731 1076.71 139.731C1075.23 139.731 1073.92 139.015 1073.78 138.13L1072.72 131.363C1072.6 130.478 1073.67 129.782 1075.15 129.782Z" fill="white"/>
<path d="M1073.04 116.335C1074.49 116.335 1075.8 117.03 1075.95 117.915L1077 124.618C1077.15 125.482 1076.05 126.199 1074.6 126.199C1073.14 126.199 1071.84 125.482 1071.69 124.618L1070.64 117.915C1070.51 117.051 1071.58 116.335 1073.04 116.335Z" fill="white"/>
<path d="M1070.95 103.013C1072.43 103.013 1073.71 103.709 1073.84 104.573L1074.89 111.233H1074.87C1075 112.098 1073.92 112.793 1072.47 112.793C1071.02 112.793 1069.71 112.098 1069.58 111.233L1068.55 104.573C1068.42 103.709 1069.48 103.013 1070.95 103.013Z" fill="white"/>
<path d="M1069.39 93.1064C1070.85 93.1065 1072.13 93.8019 1072.26 94.666L1072.79 97.9756C1072.91 98.8396 1071.86 99.5351 1070.4 99.5352C1068.95 99.5352 1067.66 98.8397 1067.52 97.9756L1067.01 94.666C1066.88 93.8018 1067.94 93.1064 1069.39 93.1064Z" fill="white"/>
<path fill-rule="evenodd" clip-rule="evenodd" d="M1057.42 87.0986C1063 83.4942 1072.98 83.4943 1079.7 87.0986L1155.94 128.012H1155.98C1162.92 131.721 1164.03 137.772 1158.45 141.523L1095.3 183.912C1089.57 187.769 1079.26 187.769 1072.3 183.912L995.812 141.523C989.065 137.793 988.285 131.743 994.04 128.012L1057.42 87.0986ZM1076.37 89.291C1071.88 86.8881 1065.22 86.8881 1061.49 89.291L998.11 130.246C994.273 132.733 994.799 136.76 999.311 139.247L1075.78 181.572C1080.42 184.144 1087.27 184.144 1091.11 181.572L1154.27 139.247C1157.98 136.76 1157.25 132.733 1152.63 130.246L1076.37 89.291Z" fill="white"/>
</svg>
